<?xml version="1.0" standalone="no"?>
<!DOCTYPE svg PUBLIC "-//W3C//DTD SVG 20010904//EN"
 "http://www.w3.org/TR/2001/REC-SVG-20010904/DTD/svg10.dtd">
<svg version="1.0" xmlns="http://www.w3.org/2000/svg"
 width="1365.000000pt" height="1365.000000pt" viewBox="0 0 1365.000000 1365.000000"
 preserveAspectRatio="xMidYMid meet">

<g transform="translate(0.000000,1365.000000) scale(0.100000,-0.100000)"
fill="#000000" stroke="none">
<path d="M6315 12999 c-19 -17 -35 -37 -35 -43 0 -16 -32 -46 -49 -46 -6 0
-31 -9 -53 -20 -23 -11 -54 -20 -70 -20 -15 0 -43 -9 -61 -19 -19 -10 -60 -24
-93 -31 -32 -7 -69 -19 -81 -26 -22 -14 -48 -10 -70 12 -6 6 -24 9 -38 6 -20
-3 -24 -7 -13 -14 9 -7 7 -8 -7 -3 -24 8 -24 8 -50 6 -20 -2 -20 -2 -1 -16 11
-8 15 -15 9 -15 -7 0 -47 -5 -90 -11 -80 -11 -119 -28 -130 -57 -4 -9 -34 -44
-67 -78 -150 -153 -176 -183 -176 -201 0 -11 -13 -37 -30 -59 -16 -21 -30 -51
-30 -65 0 -24 -5 -27 -47 -32 -130 -17 -155 -25 -240 -79 -23 -15 -53 -30 -68
-34 -31 -8 -85 -59 -85 -81 0 -9 -13 -38 -30 -65 -18 -28 -30 -62 -30 -82 0
-18 -9 -45 -20 -59 -15 -19 -20 -40 -20 -91 0 -37 -4 -74 -9 -84 -34 -68 -51
-118 -51 -150 0 -21 -4 -42 -9 -47 -5 -6 -12 -50 -15 -100 -8 -150 -13 -182
-30 -206 -11 -17 -16 -46 -16 -104 0 -44 -5 -97 -11 -118 -7 -27 -7 -42 0 -51
6 -7 11 -29 11 -47 0 -54 11 -133 21 -143 5 -6 9 -33 9 -62 0 -36 6 -59 20
-77 11 -14 20 -30 20 -36 0 -6 4 -19 9 -29 5 -9 14 -83 19 -165 5 -81 15 -153
21 -161 6 -7 14 -34 17 -59 4 -26 13 -52 20 -58 8 -6 14 -26 14 -43 0 -20 12
-46 35 -75 29 -37 34 -49 29 -79 -3 -20 -1 -52 5 -72 5 -19 13 -47 16 -63 4
-19 17 -32 43 -45 20 -9 37 -22 38 -27 0 -6 6 -23 12 -38 7 -16 12 -32 12 -37
0 -5 9 -15 19 -22 11 -8 22 -30 26 -51 4 -20 10 -37 14 -37 10 0 41 -56 41
-75 0 -10 14 -33 31 -52 42 -49 96 -163 104 -223 4 -27 11 -50 16 -50 5 0 9
-14 9 -31 0 -44 17 -69 46 -69 22 0 23 -2 14 -20 -11 -20 1 -57 23 -71 23 -16
-11 -65 -132 -190 -71 -74 -145 -154 -166 -179 -21 -25 -79 -89 -131 -142
l-93 -98 -66 0 c-81 0 -110 -14 -168 -82 -48 -56 -114 -89 -205 -103 -24 -4
-68 -16 -97 -26 -30 -10 -74 -19 -98 -19 -46 0 -79 -23 -137 -99 -29 -37 -109
-78 -224 -115 -44 -14 -96 -36 -115 -49 -40 -26 -150 -79 -196 -96 -16 -5 -61
-13 -100 -17 -155 -15 -225 -38 -320 -105 -58 -40 -168 -108 -229 -139 -16 -8
-52 -35 -80 -60 -72 -63 -90 -77 -276 -205 -52 -36 -114 -80 -137 -97 -23 -18
-59 -46 -80 -63 -64 -49 -373 -358 -379 -380 -4 -11 -23 -40 -43 -64 -43 -53
-121 -172 -121 -186 0 -6 -13 -37 -30 -70 -16 -33 -30 -67 -30 -76 0 -8 -4
-19 -9 -25 -5 -5 -28 -65 -51 -134 -23 -69 -50 -144 -61 -167 -10 -24 -19 -46
-19 -51 0 -5 -9 -27 -20 -50 -11 -22 -20 -47 -20 -55 0 -7 -4 -17 -9 -23 -10
-11 -37 -88 -57 -164 -8 -30 -23 -74 -34 -97 -11 -24 -20 -51 -20 -62 0 -10
-7 -32 -15 -47 -8 -16 -18 -46 -21 -67 -4 -20 -11 -40 -15 -43 -5 -3 -9 -16
-9 -29 0 -45 -29 -135 -54 -168 -15 -19 -26 -47 -26 -64 0 -21 -13 -46 -40
-79 -37 -45 -40 -53 -40 -111 0 -63 -6 -100 -40 -228 -10 -38 -26 -104 -35
-145 -9 -41 -21 -80 -27 -87 -5 -7 -13 -41 -18 -77 -5 -43 -16 -77 -34 -102
-14 -21 -26 -52 -26 -69 0 -16 -11 -52 -25 -79 -23 -45 -87 -285 -99 -366 -14
-103 -27 -173 -46 -245 -31 -117 -41 -184 -48 -335 -6 -106 -11 -141 -25 -162
-19 -28 -19 -85 -1 -499 5 -125 4 -141 -15 -182 -12 -26 -21 -67 -21 -94 0
-28 -7 -58 -16 -71 -25 -36 -44 -147 -44 -256 0 -83 -3 -104 -21 -132 -18 -29
-20 -44 -14 -102 3 -37 9 -204 13 -372 6 -259 10 -309 24 -334 9 -16 20 -46
23 -66 3 -19 18 -49 33 -65 65 -71 62 -49 62 -407 l0 -328 5055 0 5056 0 -11
20 c-6 11 -15 18 -20 15 -4 -3 -10 1 -13 7 -3 10 -9 11 -26 1 -30 -19 -33 -17
-25 22 6 34 6 35 -22 29 -24 -4 -31 -1 -41 21 -11 24 -9 27 15 38 15 6 30 16
33 20 4 5 24 -2 45 -17 21 -14 42 -26 46 -26 5 0 17 -9 28 -20 11 -11 27 -20
35 -20 8 0 15 -4 15 -10 0 -5 8 -10 19 -10 18 0 34 -5 151 -49 52 -20 74 -21
507 -21 l453 0 -22 25 c-23 26 -66 33 -85 14 -7 -7 -17 -2 -32 17 -17 22 -21
36 -16 64 3 19 1 50 -4 68 -9 30 -7 34 14 44 13 6 31 26 40 44 31 65 -21 113
-105 98 -19 -3 -42 -11 -50 -18 -28 -25 -62 -24 -142 0 -45 13 -89 24 -99 24
-9 0 -37 11 -61 25 -25 14 -71 30 -103 36 -40 7 -72 21 -99 43 -23 18 -49 36
-58 39 -9 3 -22 16 -28 27 -11 21 -11 22 32 15 23 -3 52 -8 63 -11 11 -2 5 3
-12 13 -45 23 -42 34 5 18 20 -7 57 -17 82 -23 25 -6 63 -19 85 -28 22 -10 51
-19 65 -21 14 -1 45 -9 69 -18 53 -18 100 -20 97 -2 -8 45 -34 86 -78 126 -10
8 -18 21 -18 28 0 7 -5 13 -11 13 -6 0 -22 14 -36 31 -14 16 -32 28 -39 25 -7
-3 -19 3 -26 13 -7 10 -23 21 -34 25 -12 4 -34 18 -50 31 -16 14 -40 25 -54
25 -32 0 -73 28 -64 42 5 7 1 9 -9 5 -10 -4 -17 -2 -17 4 0 6 -11 24 -25 41
-14 16 -25 38 -25 48 0 18 -21 22 -115 21 -11 0 -37 4 -58 10 -32 8 -42 7 -57
-6 -10 -9 -27 -15 -37 -14 -10 2 -23 0 -30 -4 -6 -4 -42 -9 -80 -11 -37 -2
-77 -7 -88 -12 -43 -17 -396 -9 -520 12 -69 12 -94 12 -185 -1 -58 -8 -120
-15 -138 -15 -44 0 -97 -36 -82 -56 7 -7 9 -18 5 -24 -3 -5 7 -15 22 -22 15
-7 30 -15 33 -19 3 -3 37 -20 75 -38 39 -19 83 -40 98 -47 16 -8 37 -14 47
-14 10 0 20 -4 22 -8 5 -13 110 -62 131 -62 29 0 126 -29 176 -53 25 -11 65
-22 90 -24 59 -4 73 -7 89 -17 8 -4 41 -15 75 -22 33 -8 75 -23 92 -34 18 -11
42 -20 55 -20 12 0 20 -5 18 -12 -2 -6 4 -20 14 -30 21 -21 24 -58 4 -58 -8 0
-17 13 -21 30 -8 35 -30 40 -38 9 -5 -20 -11 -21 -56 -16 -27 3 -58 11 -68 16
-10 6 -38 15 -62 21 -24 6 -53 22 -66 36 -34 36 -157 54 -217 31 -54 -21 -98
-22 -98 -3 0 12 -21 29 -80 65 -8 5 -53 27 -100 49 -103 49 -203 64 -246 35
-17 -11 -48 -17 -90 -18 -34 0 -66 -4 -70 -8 -11 -11 -44 -8 -44 3 0 6 -5 10
-11 10 -6 0 -8 -8 -4 -19 9 -30 -29 -58 -89 -66 -156 -18 -143 -19 -150 10 -6
22 -9 25 -21 15 -11 -9 -15 -9 -15 -1 0 6 -5 11 -11 11 -5 0 -7 -4 -4 -10 3
-5 -1 -10 -10 -10 -9 0 -14 4 -10 10 12 20 -57 40 -177 50 -68 6 -134 13 -147
16 -13 3 -94 7 -180 10 -86 3 -174 7 -196 9 -22 3 -103 5 -181 5 -115 -1 -143
2 -154 15 -9 10 -31 15 -73 15 -36 0 -67 5 -76 13 -17 14 -107 37 -146 37 -14
0 -32 11 -45 27 -13 17 -24 23 -28 17 -9 -13 -80 -26 -84 -15 -2 5 -20 11 -40
15 -28 5 -38 3 -39 -6 -1 -7 -4 -2 -8 12 -7 24 -11 25 -79 25 -40 0 -72 -4
-72 -9 0 -6 -5 -5 -12 2 -8 8 -8 15 0 24 8 10 -7 14 -76 16 -48 2 -89 5 -91 8
-3 2 1 10 7 16 7 7 12 22 12 35 0 18 -6 23 -26 23 -15 0 -33 -8 -40 -18 -16
-21 -18 -62 -3 -62 5 0 7 -5 3 -12 -5 -8 -12 -1 -21 20 -14 36 -42 43 -50 13
-7 -28 -31 -34 -50 -11 -9 10 -20 17 -25 14 -4 -3 -11 9 -14 26 -4 17 -9 28
-12 26 -2 -3 -15 17 -29 44 l-24 49 -40 -16 c-27 -10 -44 -12 -50 -6 -15 15
-39 115 -33 135 4 13 -3 18 -31 24 -55 10 -71 60 -20 65 48 4 274 20 420 29
217 14 339 9 380 -13 17 -10 48 -17 70 -17 22 0 56 -5 75 -10 37 -11 261 -33
320 -31 19 0 91 -6 160 -14 68 -8 129 -10 135 -6 5 4 57 27 114 51 57 24 145
70 195 103 264 174 560 347 593 347 10 0 50 -11 88 -24 39 -14 141 -46 228
-71 87 -26 184 -55 215 -66 69 -24 260 -84 557 -174 202 -61 466 -147 690
-225 50 -17 172 -54 273 -81 100 -27 309 -92 465 -145 155 -53 318 -107 362
-121 44 -14 134 -42 200 -63 66 -21 183 -56 260 -79 198 -59 562 -178 646
-211 115 -45 172 -108 86 -95 -34 5 -48 3 -61 -10 -23 -24 -16 -38 25 -48 101
-26 104 -33 60 -129 -15 -35 -33 -75 -39 -91 l-12 -27 165 0 165 0 0 838 0
838 -31 18 c-18 11 -52 19 -80 19 -27 0 -49 5 -49 10 0 5 -13 7 -29 5 -17 -2
-28 -2 -26 2 2 3 -22 12 -53 18 -35 7 -61 19 -69 30 -6 11 -36 40 -67 67 l-56
47 -50 -12 c-38 -9 -50 -16 -46 -27 3 -8 -1 -25 -10 -39 -14 -20 -19 -22 -32
-12 -14 12 -15 8 -9 -34 4 -31 2 -58 -7 -79 -12 -28 -12 -35 1 -47 8 -8 17
-27 20 -43 3 -16 9 -29 13 -29 3 0 17 -24 31 -52 13 -29 32 -59 41 -66 10 -7
18 -24 18 -37 0 -27 -16 -42 -23 -23 -3 8 -8 4 -14 -9 l-8 -23 -32 20 c-24 14
-30 24 -26 39 4 17 1 21 -19 21 -16 0 -29 9 -38 25 -7 14 -19 25 -26 25 -18 0
-22 18 -16 80 4 52 3 56 -22 69 -14 8 -26 21 -26 30 0 9 -7 25 -15 35 -8 11
-15 27 -15 36 0 9 -11 22 -25 28 -14 6 -25 18 -25 27 0 25 -48 19 -52 -7 -3
-21 -4 -21 -21 -4 -11 11 -15 25 -12 35 12 30 10 35 -13 46 -12 5 -20 15 -18
22 3 6 -2 17 -9 23 -8 7 -18 28 -21 48 -4 20 -13 43 -21 50 -7 7 -13 22 -13
32 0 10 -5 20 -12 22 -8 3 -12 25 -11 61 1 32 -2 55 -7 52 -11 -7 -20 20 -20
64 0 41 -27 131 -40 131 -4 0 -10 18 -14 40 -3 22 -10 40 -15 40 -9 0 -31 108
-38 188 -3 28 -8 50 -12 47 -5 -2 -6 8 -5 23 2 15 1 21 -2 15 -8 -19 -24 -16
-24 4 0 15 -2 14 -14 -3 -8 -10 -17 -16 -21 -13 -13 14 62 83 120 111 87 41
164 39 268 -6 44 -19 85 -32 92 -30 9 4 13 19 12 39 -2 27 -18 50 -77 113 -68
71 -180 162 -180 146 0 -4 -8 0 -17 8 -10 9 -40 27 -66 42 -91 50 -186 136
-277 250 -79 99 -119 136 -150 136 -5 0 -29 14 -53 30 -28 19 -58 30 -79 30
-19 0 -62 14 -97 30 -52 26 -65 37 -80 73 -24 54 -126 190 -185 244 -25 23
-46 47 -46 52 0 5 -18 27 -40 49 -22 22 -40 44 -40 50 0 5 -18 28 -40 50 -22
22 -40 44 -40 49 0 12 -96 111 -163 169 -34 29 -47 47 -47 67 0 44 -37 77 -84
77 -23 0 -63 7 -90 15 -70 21 -231 103 -257 131 -12 13 -51 33 -88 44 -80 26
-152 90 -196 178 -17 31 -35 63 -42 70 -6 6 -15 22 -19 35 -4 12 -25 49 -47
82 -64 94 -117 204 -117 243 0 21 -9 48 -23 66 -31 43 -45 72 -66 139 -15 51
-33 74 -129 177 -62 65 -112 123 -112 128 0 6 -37 44 -81 86 -82 75 -109 112
-109 147 0 10 -4 21 -10 24 -5 3 -10 16 -10 29 0 12 -17 38 -39 60 -23 23 -42
52 -45 71 -4 18 -16 43 -27 56 -12 13 -28 38 -35 56 -8 17 -18 35 -24 38 -6 4
-21 23 -34 43 -13 21 -40 55 -59 77 -20 22 -37 45 -37 50 0 9 -44 80 -67 110
-5 6 -23 29 -41 51 -37 48 -92 149 -92 170 0 8 -9 24 -19 35 -11 12 -22 35
-25 52 -6 31 -69 110 -166 207 -69 69 -70 70 -80 179 -5 57 -15 121 -22 142
-22 76 -104 129 -199 129 -30 0 -109 36 -109 51 0 11 -58 32 -74 26 -7 -3 -16
-17 -20 -32 -9 -37 -36 -76 -48 -69 -5 3 -5 11 2 19 6 7 8 20 4 28 -7 18 -66
33 -84 22 -7 -4 -28 10 -51 34 -22 22 -49 41 -59 41 -21 0 -28 34 -10 45 6 4
8 10 6 14 -9 13 9 28 67 55 31 15 57 31 57 36 0 5 17 12 38 15 61 11 86 24
130 69 23 24 42 46 42 49 0 12 -32 16 -55 5 -21 -10 -31 -6 -79 27 -52 36 -63
55 -30 55 13 0 18 11 15 36 -1 6 8 19 18 28 24 22 58 7 67 -30 6 -23 7 -23 20
-7 18 24 17 33 -1 33 -25 0 -17 16 20 41 22 15 38 35 42 52 3 15 22 41 45 58
38 31 38 32 23 56 -9 14 -14 27 -11 30 6 7 -24 64 -39 75 -17 13 -79 9 -109
-7 -15 -8 -33 -15 -38 -15 -5 0 -26 -14 -47 -31 -21 -16 -49 -31 -62 -32 -13
0 -29 -8 -35 -16 -6 -8 -18 -12 -27 -8 -13 5 -9 14 21 46 21 23 43 41 50 41 6
0 12 6 12 14 0 9 18 15 56 19 57 6 106 34 83 48 -11 7 -14 132 -4 150 4 5 15
9 26 9 11 0 30 11 43 25 13 14 28 25 34 25 29 0 120 55 144 87 26 33 26 37 12
64 -12 24 -21 29 -52 29 -21 0 -43 5 -49 11 -17 17 -66 -3 -123 -51 -26 -22
-54 -40 -61 -40 -8 0 -26 -6 -40 -14 -14 -7 -59 -16 -100 -20 -73 -6 -74 -6
-107 25 -23 21 -31 36 -27 48 4 9 10 24 12 34 3 9 9 17 14 17 5 0 9 8 9 18 0
10 9 35 20 57 11 22 20 51 20 66 0 24 41 88 62 97 5 2 5 14 2 27 -3 13 -1 32
5 43 7 13 7 22 -1 30 -8 8 -7 13 5 18 9 3 17 15 17 25 0 10 4 19 10 19 5 0 13
18 16 40 4 22 10 40 15 40 12 0 11 177 -1 185 -20 12 7 139 37 176 8 9 13 20
11 25 -2 10 32 86 43 94 19 14 47 84 40 99 -5 9 -6 21 -4 28 2 6 -5 17 -17 23
-17 9 -19 14 -9 26 6 8 8 15 3 15 -5 1 -14 2 -20 3 -6 0 -25 15 -42 33 -18 17
-48 37 -67 43 -20 6 -32 16 -29 22 4 6 -1 8 -13 4 -12 -4 -25 -1 -33 9 -7 8
-17 15 -22 15 -5 0 -21 9 -35 20 -14 11 -37 20 -52 20 -14 0 -37 9 -51 20 -22
16 -27 17 -41 4 -13 -11 -22 -12 -44 -4 -15 6 -37 8 -48 4 -11 -4 -23 -1 -28
7 -6 10 -13 11 -31 2 -26 -13 -96 -28 -118 -25 -103 12 -164 11 -174 -3 -7
-10 -34 -18 -69 -22 -32 -3 -60 -10 -63 -14 -8 -13 -44 -11 -44 2 0 6 -6 5
-14 -3 -8 -9 -28 -12 -55 -10 -40 4 -41 5 -41 43 0 21 5 39 10 39 6 0 10 -9
10 -21 0 -12 5 -19 13 -16 6 2 12 14 11 26 0 15 5 21 21 21 29 0 94 50 95 73
0 9 3 18 8 18 4 1 16 3 27 5 11 2 49 7 85 10 41 4 72 13 85 24 17 15 29 16 75
10 62 -9 81 0 59 27 -29 37 -37 57 -25 69 8 8 16 8 28 0 14 -8 22 -7 35 7 17
17 17 18 -5 23 -25 7 -30 32 -7 40 8 4 12 10 9 15 -3 5 7 10 23 10 91 4 117 9
124 20 4 7 3 19 -3 26 -7 9 -6 14 6 19 9 3 16 14 16 23 0 9 25 49 56 90 55 72
134 213 134 239 0 7 4 11 9 8 5 -3 12 5 15 19 7 27 43 35 52 11 3 -7 27 -23
55 -36 27 -13 49 -27 49 -31 0 -10 107 -52 121 -47 7 2 -4 12 -24 22 -20 9
-37 20 -37 24 1 4 22 17 47 29 46 22 47 22 60 2 18 -25 33 -24 33 1 0 13 7 20
19 20 29 0 33 -15 20 -60 -11 -37 -15 -40 -48 -40 -27 0 -32 -3 -21 -10 27
-17 61 -11 82 15 11 14 25 25 31 25 16 1 62 42 70 63 6 15 10 16 27 5 19 -11
24 -10 41 11 18 22 20 35 15 120 -9 157 -23 293 -34 336 -15 53 -15 65 2 65
20 0 15 74 -8 115 -9 17 -16 38 -16 48 0 26 -92 165 -137 208 -21 20 -69 60
-108 89 -38 29 -108 87 -154 129 -45 42 -90 80 -99 85 -9 5 -30 23 -47 41 -30
29 -171 106 -223 120 -20 6 -23 12 -20 43 3 32 -1 38 -26 50 -15 8 -56 18 -90
22 -82 11 -123 26 -175 66 -24 19 -54 34 -65 34 -12 0 -36 9 -54 20 -20 12
-50 20 -78 20 -52 0 -68 7 -113 49 -26 25 -42 31 -76 31 -47 0 -102 20 -147
53 -24 18 -32 19 -48 9 -27 -17 -65 -15 -84 3 -8 9 -41 29 -72 45 -44 24 -60
28 -70 19 -9 -8 -34 -9 -72 -5 -31 4 -79 9 -107 12 -81 9 -142 29 -197 66 -14
10 -35 18 -46 18 -12 0 -24 5 -27 10 -3 6 -30 10 -60 10 -30 0 -57 5 -60 10
-3 6 -24 10 -45 10 -30 0 -48 -8 -75 -31z m2072 -1851 c-3 -8 -6 -5 -6 6 -1
11 2 17 5 13 3 -3 4 -12 1 -19z m153 -36 c0 -10 6 -24 13 -31 10 -11 9 -14 -1
-18 -10 -4 -10 -8 -1 -19 16 -19 3 -18 -47 7 -50 24 -76 49 -50 49 9 0 16 7
16 15 0 10 11 15 35 15 27 0 35 -4 35 -18z m-307 -132 c6 -24 -56 -100 -67
-82 -3 6 -2 13 3 16 5 4 8 20 6 37 -3 24 -1 30 10 25 9 -3 15 1 15 9 0 23 27
18 33 -5z m-73 -150 c0 -5 -5 -10 -11 -10 -5 0 -7 5 -4 10 3 6 8 10 11 10 2 0
4 -4 4 -10z m-305 -370 c3 -5 1 -10 -4 -10 -6 0 -11 5 -11 10 0 6 2 10 4 10 3
0 8 -4 11 -10z m-335 -130 c0 -5 -7 -10 -16 -10 -8 0 -12 5 -9 10 3 6 10 10
16 10 5 0 9 -4 9 -10z m-47 -140 c23 0 22 -22 -3 -38 -12 -7 -18 -17 -15 -22
4 -6 -6 -7 -25 -4 -23 5 -30 3 -30 -10 0 -9 -4 -16 -10 -16 -5 0 -10 7 -10 15
0 8 5 15 10 15 19 0 10 32 -10 37 -11 3 -20 9 -20 14 0 9 47 18 75 13 11 -2
28 -4 38 -4z m-626 -96 c8 -21 -13 -42 -28 -27 -13 13 -5 43 11 43 6 0 13 -7
17 -16z m280 -16 c-3 -8 -6 -5 -6 6 -1 11 2 17 5 13 3 -3 4 -12 1 -19z m-247
-42 c0 -28 -4 -35 -22 -38 -21 -3 -23 -7 -19 -53 2 -27 8 -53 13 -56 16 -10
-13 -79 -33 -79 -10 0 -19 6 -22 13 -4 10 -7 10 -18 0 -7 -7 -21 -13 -32 -13
-18 0 -18 -1 2 -34 24 -38 26 -46 10 -46 -7 0 -18 -8 -25 -17 -13 -17 -13 -17
-14 0 0 9 -7 17 -15 17 -8 0 -15 5 -15 11 0 5 -3 8 -8 5 -4 -2 -6 -25 -4 -50
3 -37 8 -46 23 -46 10 0 19 4 19 9 0 8 64 51 76 51 10 0 3 -33 -11 -47 -30
-29 -14 -48 43 -51 43 -3 52 -6 52 -22 0 -10 -6 -20 -12 -23 -7 -2 -4 -3 6 -1
11 2 25 -5 32 -14 12 -16 14 -15 33 5 12 12 21 27 21 33 0 5 18 10 40 10 22 0
40 -5 40 -11 0 -9 72 -9 190 1 41 4 130 -17 130 -30 0 -4 18 -12 39 -19 37
-11 57 -33 46 -51 -3 -4 12 -11 32 -15 21 -4 49 -15 63 -25 28 -20 69 -29 155
-36 73 -5 107 -21 100 -45 -5 -13 3 -18 42 -24 37 -6 43 -9 28 -15 -11 -4 -23
-6 -27 -4 -3 2 -4 -4 -1 -14 6 -25 66 -46 92 -33 11 6 31 11 45 11 17 0 26 6
26 16 0 13 5 12 26 -5 15 -12 33 -21 40 -21 8 0 14 -5 14 -11 0 -6 7 -8 15 -5
10 3 18 -1 22 -11 4 -9 1 -19 -5 -21 -14 -4 -16 -32 -3 -32 5 0 11 6 14 13 2
6 7 9 11 5 4 -3 0 -17 -8 -31 -9 -13 -17 -43 -19 -66 -1 -32 -6 -41 -18 -38
-12 3 -14 -2 -11 -24 3 -19 0 -29 -8 -29 -7 0 -10 -7 -6 -15 3 -9 -3 -23 -14
-32 -14 -12 -16 -20 -9 -29 7 -9 5 -21 -7 -39 -12 -18 -18 -48 -18 -86 l-1
-59 32 0 c19 0 33 5 34 13 0 6 4 2 9 -10 5 -13 14 -23 19 -23 5 0 20 -18 32
-39 18 -32 29 -41 60 -46 22 -4 39 -11 39 -16 0 -5 18 -9 39 -9 33 0 40 -3 38
-19 -1 -11 -9 -22 -19 -24 -25 -7 -22 -23 5 -31 21 -6 21 -7 -11 -26 -18 -11
-37 -20 -42 -20 -6 0 -10 -5 -10 -11 0 -5 -5 -7 -10 -4 -6 4 -24 -5 -41 -19
-17 -14 -41 -29 -54 -32 -13 -3 -26 -13 -29 -21 -4 -9 -13 -13 -22 -9 -20 8
-68 -45 -51 -56 7 -4 8 -8 2 -8 -21 0 -37 18 -35 41 4 42 0 49 -22 49 -23 0
-58 46 -58 75 0 7 -5 15 -12 17 -8 3 -9 12 0 36 6 19 7 32 1 32 -5 0 -9 9 -9
20 0 11 5 20 10 20 6 0 10 15 10 34 0 30 4 35 30 41 41 9 58 29 53 59 -5 23
-10 26 -44 26 -32 0 -39 -3 -39 -20 0 -11 -6 -20 -13 -20 -8 0 -22 9 -32 20
-22 25 -32 25 -37 3 -3 -10 -4 1 -4 25 0 26 5 42 13 42 22 0 24 19 2 30 -15 9
-24 9 -32 1 -14 -14 -57 -15 -57 -1 0 5 10 15 22 21 14 8 18 14 10 17 -6 2
-12 12 -12 23 0 14 -9 21 -31 26 -26 5 -30 10 -26 30 3 17 -1 26 -12 30 -9 2
-32 12 -51 20 -36 17 -43 19 -71 21 -9 1 -19 11 -22 22 -3 13 -14 20 -29 20
-27 0 -64 19 -38 20 13 0 13 2 0 9 -16 11 -33 4 -25 -9 6 -10 -23 -17 -117
-25 -43 -4 -78 -11 -78 -16 0 -5 -9 -9 -20 -9 -11 0 -20 -5 -20 -11 0 -7 -11
-9 -32 -4 -18 3 -51 7 -73 8 -37 2 -40 0 -43 -25 -3 -27 -4 -27 -28 -11 -16
10 -21 20 -16 25 15 15 2 48 -19 48 -28 0 -107 -76 -114 -110 -3 -15 -15 -36
-26 -46 -18 -16 -19 -16 -19 0 0 9 -4 14 -10 11 -16 -10 -12 -34 10 -57 11
-12 20 -25 20 -30 0 -14 -29 -8 -38 8 -7 13 -13 14 -30 5 -19 -10 -21 -9 -15
5 4 12 3 15 -6 10 -8 -5 -11 -3 -9 7 2 9 -6 23 -17 31 -20 16 -20 16 5 35 l25
20 3 -39 c5 -62 27 -57 27 6 0 45 -3 54 -17 54 -10 0 -18 5 -18 10 0 6 -18 10
-40 10 -22 0 -40 -4 -40 -10 0 -5 -18 -10 -40 -10 -22 0 -40 -4 -40 -10 0 -5
5 -10 10 -10 6 0 10 -7 10 -15 0 -8 -4 -15 -10 -15 -5 0 -10 -7 -10 -15 0 -8
-9 -15 -19 -15 -11 0 -23 -4 -26 -10 -3 -5 1 -10 9 -10 9 0 16 -4 16 -10 0 -5
-4 -10 -9 -10 -6 0 -13 5 -16 10 -3 6 -24 10 -45 10 -35 0 -40 3 -46 28 -4 15
-11 33 -17 40 -7 8 -5 12 8 12 14 0 15 3 6 14 -6 7 -8 21 -5 30 5 12 1 19 -13
22 -11 3 -28 25 -39 50 -20 45 -31 51 -64 34 -13 -7 -21 -7 -25 0 -3 5 1 10 9
10 9 0 13 6 10 15 -6 15 21 62 34 58 4 -2 7 3 7 10 0 6 9 12 20 12 16 0 19 6
17 26 -2 24 2 27 38 33 31 5 40 11 40 26 0 11 5 20 10 20 6 0 10 -9 10 -20 0
-13 5 -18 15 -14 9 4 14 14 13 23 -2 12 6 17 31 19 27 3 33 0 28 -12 -5 -12 0
-16 21 -16 23 0 71 -19 49 -20 -5 0 -5 -5 -1 -11 10 -18 24 13 17 39 -4 17
-13 22 -39 22 -22 0 -37 6 -40 15 -4 8 -14 15 -23 15 -13 1 -13 3 4 16 11 8
25 12 32 10 8 -3 13 2 13 14 0 13 -5 18 -15 14 -9 -4 -15 0 -15 9 0 8 6 17 13
20 6 2 0 8 -15 12 -29 8 -46 41 -30 57 6 6 8 17 5 24 -3 8 0 14 6 14 6 0 12
-19 12 -42 1 -24 3 -36 6 -26 2 9 16 19 31 23 15 4 21 10 15 12 -8 3 -13 22
-13 44 0 35 -3 39 -25 39 -18 0 -25 5 -25 20 0 11 5 20 10 20 6 0 10 7 10 15
0 9 -9 15 -22 15 -21 1 -21 2 -5 11 10 6 17 22 17 42 0 22 3 28 9 19 6 -10 10
-6 15 14 5 18 3 30 -3 32 -15 5 -14 42 2 43 9 0 9 2 -1 6 -10 4 -9 8 5 19 15
11 16 15 4 23 -8 5 -20 7 -28 4 -7 -3 -13 -1 -13 5 0 20 53 29 87 15 24 -10
34 -10 39 -1 4 7 2 14 -4 16 -13 4 -16 50 -4 68 4 7 31 12 60 11 29 0 58 5 64
11 17 17 18 16 18 -22z m-200 -17 c7 -12 18 -18 26 -15 8 3 14 1 14 -5 0 -10
-66 -6 -77 4 -8 9 4 37 16 37 6 0 15 -9 21 -21z m-1082 -87 c21 -27 8 -37 -59
-43 -44 -5 -84 -18 -130 -41 -100 -53 -122 -82 -135 -177 -4 -28 -10 -48 -15
-45 -5 3 -9 -20 -9 -50 0 -53 -11 -72 -24 -43 -3 6 -5 -3 -3 -20 4 -34 -7 -44
-17 -17 -25 64 30 256 92 322 7 8 19 26 26 40 37 72 127 114 210 100 28 -5 57
-17 64 -26z m2382 -2 c0 -5 -4 -10 -10 -10 -5 0 -10 5 -10 10 0 6 5 10 10 10
6 0 10 -4 10 -10z m38 -32 c-4 -12 -37 -20 -50 -12 -15 9 3 24 28 24 15 0 24
-5 22 -12z m-1131 -110 c-3 -8 -6 -5 -6 6 -1 11 2 17 5 13 3 -3 4 -12 1 -19z
m1093 -22 c0 -18 -16 -29 -30 -21 -6 4 -5 11 3 20 16 18 27 19 27 1z m-2205
-76 c8 -24 -1 -40 -21 -40 -8 0 -14 10 -14 23 0 40 24 51 35 17z m-288 -25
c-4 -26 0 -45 14 -70 20 -33 20 -36 4 -70 -10 -19 -21 -35 -25 -35 -12 0 -33
-112 -33 -180 0 -36 -2 -48 -4 -28 -3 26 -8 35 -18 32 -13 -5 -24 21 -39 89
-7 30 8 90 51 202 38 99 61 126 50 60z m2313 4 c0 -22 -17 -24 -43 -5 -19 14
-12 21 24 23 13 1 19 -5 19 -18z m-1660 -43 c22 -13 26 -25 37 -108 7 -51 15
-130 16 -175 l4 -83 -34 0 c-21 0 -32 -5 -30 -12 1 -7 -8 -14 -20 -16 -14 -2
-23 3 -28 17 -3 12 -12 21 -18 21 -6 0 -20 11 -32 24 -34 41 -59 41 -78 0 -12
-24 -23 -34 -35 -32 -15 3 -17 18 -18 116 -2 112 -2 113 25 130 14 9 41 29 60
45 19 16 49 36 68 43 18 8 33 21 33 29 0 18 17 19 50 1z m1847 -174 c21 -13
-32 -63 -64 -60 -19 2 -28 -2 -28 -12 0 -21 -49 -25 -65 -5 -12 14 -11 16 13
10 16 -4 27 -3 27 3 0 6 -8 12 -17 14 -10 2 5 10 34 17 29 7 57 19 64 27 13
16 19 17 36 6z m-2241 -303 c26 -23 63 -48 81 -57 34 -16 37 -16 146 15 22 7
23 -20 1 -41 -20 -21 -96 -21 -136 0 -22 11 -43 14 -75 9 -50 -7 -93 13 -130
63 -26 35 -15 52 33 52 24 0 46 -11 80 -41z m349 21 c13 -6 15 -9 5 -9 -8 0
-22 4 -30 9 -18 12 -2 12 25 0z m309 -69 c0 -16 5 -21 23 -21 34 0 28 -14 -14
-30 -21 -8 -41 -16 -45 -18 -17 -8 -7 26 14 48 15 16 18 25 10 28 -7 2 -12 8
-12 14 0 5 6 8 13 5 6 -2 12 -14 11 -26z m-284 -26 c0 -8 -4 -15 -10 -15 -5 0
-10 7 -10 15 0 8 5 15 10 15 6 0 10 -7 10 -15z m-440 -8 c0 -2 -7 -18 -16 -36
-14 -29 -14 -34 0 -56 21 -32 21 -57 -1 -53 -10 1 -24 -1 -32 -6 -17 -11 -50
29 -51 62 0 12 -4 22 -10 22 -5 0 -10 7 -10 16 0 11 6 14 20 9 14 -4 20 -2 20
8 0 9 12 20 28 25 28 11 52 15 52 9z m534 -32 c-4 -8 -10 -15 -15 -15 -5 0 -9
7 -9 15 0 8 7 15 15 15 9 0 12 -6 9 -15z m66 -32 c0 -8 -11 -13 -29 -13 -17 0
-33 -5 -36 -11 -10 -16 25 -49 52 -49 14 0 21 -4 18 -10 -3 -5 -15 -10 -26
-10 -10 0 -19 5 -19 10 0 6 -12 10 -26 10 -29 0 -79 49 -65 63 5 5 27 11 50
14 33 5 41 10 41 26 0 19 1 20 20 2 11 -10 20 -24 20 -32z m190 -48 c10 -44
17 -55 38 -60 19 -5 22 -9 13 -18 -17 -17 -14 -24 14 -31 14 -4 25 -14 25 -22
0 -12 -6 -15 -22 -10 -13 3 -31 6 -40 6 -11 0 -18 8 -18 20 0 10 -11 36 -25
56 -17 25 -25 50 -25 80 0 61 23 49 40 -21z m615 56 c7 -12 -12 -24 -25 -16
-11 7 -4 25 10 25 5 0 11 -4 15 -9z m-669 -17 c-3 -9 -6 -22 -6 -31 0 -12 -2
-12 -16 1 -12 13 -13 18 -2 30 17 20 32 20 24 0z m294 -8 c0 -11 -19 -15 -25
-6 -3 5 1 10 9 10 9 0 16 -2 16 -4z m-945 -16 c3 -5 15 -10 27 -10 11 0 33 -8
49 -17 24 -14 33 -15 49 -5 11 6 33 12 48 12 24 0 30 -6 40 -36 9 -31 8 -41
-6 -61 -16 -22 -22 -23 -72 -17 -30 3 -59 7 -65 7 -5 1 -18 10 -29 20 -11 9
-37 20 -58 23 -33 6 -37 9 -32 29 3 13 -1 28 -10 38 -9 8 -16 18 -16 21 0 10
69 6 75 -4z m555 -5 c0 -8 -3 -15 -6 -15 -3 0 -12 7 -20 15 -14 13 -13 15 5
15 12 0 21 -6 21 -15z m261 -217 c0 -32 3 -46 8 -35 6 17 8 17 25 -2 11 -12
14 -21 8 -21 -18 0 -14 -25 9 -54 l20 -26 -28 0 c-23 0 -31 7 -42 33 -8 17
-14 48 -13 67 0 21 -2 26 -5 13 -6 -28 -34 -30 -51 -3 -7 11 -21 20 -31 20
-10 0 -21 6 -24 14 -11 29 68 37 89 9 12 -16 13 -15 14 10 0 51 20 27 21 -25z
m-1310 -58 c5 0 9 -11 9 -24 0 -14 4 -27 8 -30 4 -2 7 -53 6 -113 -1 -103 34
-408 55 -478 5 -16 15 -61 21 -100 15 -93 105 -431 180 -675 21 -69 50 -168
66 -220 15 -52 52 -158 82 -235 29 -77 68 -183 87 -235 84 -237 187 -499 210
-535 7 -11 16 -40 20 -63 4 -24 13 -55 21 -70 17 -35 123 -147 146 -155 22 -8
127 -140 172 -217 36 -61 86 -177 86 -198 0 -30 23 -4 86 96 37 59 74 118 84
132 33 50 135 226 161 280 15 30 40 69 56 86 33 35 41 53 79 177 14 48 30 87
33 87 4 0 6 -48 4 -107 -4 -121 -13 -151 -85 -295 -26 -54 -48 -100 -48 -102
0 -2 -20 -39 -45 -80 -25 -42 -45 -79 -45 -82 0 -3 -16 -31 -37 -62 -20 -31
-43 -73 -50 -92 -39 -93 -182 -270 -219 -270 -20 0 -12 -39 25 -124 15 -34 33
-81 41 -106 7 -25 17 -49 21 -55 21 -28 119 -495 138 -655 27 -223 59 -485 70
-575 5 -38 12 -137 16 -220 3 -82 10 -181 16 -220 12 -88 22 -282 15 -301 -6
-15 -36 -9 -36 8 0 5 5 6 10 3 9 -6 12 1 9 23 -1 4 -5 6 -10 5 -5 -2 -9 4 -9
13 0 10 -6 14 -15 10 -11 -4 -15 1 -15 18 0 12 -11 33 -25 46 -14 13 -25 31
-25 40 0 9 -5 21 -11 27 -5 5 -13 35 -16 64 -4 43 -2 57 11 68 18 15 22 41 5
41 -5 0 -7 5 -3 12 4 7 9 34 10 61 1 26 8 55 15 63 9 11 9 21 1 39 -6 14 -9
32 -6 40 4 8 2 15 -4 15 -5 0 -17 18 -26 40 -9 22 -21 39 -28 38 -24 -6 -40
72 -29 140 7 46 7 71 -1 88 -8 18 -9 34 -1 57 9 28 10 51 4 111 0 7 -9 16 -19
18 -18 5 -41 91 -48 181 -4 46 -41 238 -56 287 -5 19 -23 71 -38 115 -47 132
-117 337 -130 380 -7 22 -16 44 -21 50 -5 5 -9 16 -9 26 0 9 -14 49 -30 90
-17 41 -32 81 -33 89 -2 8 -11 27 -21 42 -10 15 -19 33 -20 41 -1 8 -7 21 -13
28 -6 8 -13 25 -15 38 -3 22 -38 41 -38 20 0 -20 -31 -7 -40 17 -15 38 -13 44
18 55 36 12 69 78 75 151 5 57 -6 88 -16 47 -8 -29 -31 -19 -35 14 -2 15 -10
27 -18 27 -19 0 -18 46 1 54 8 3 22 3 30 0 8 -4 15 -1 15 5 0 7 -7 14 -15 17
-8 4 -15 15 -15 25 0 11 -8 31 -17 46 -10 14 -18 32 -19 40 -1 7 -11 32 -22
56 -11 23 -23 54 -26 70 -8 33 -20 34 -111 1 -38 -14 -82 -28 -98 -31 -15 -3
-30 -9 -33 -14 -12 -20 -23 -6 -35 46 -7 31 -16 58 -21 61 -4 3 -8 16 -8 30 0
13 -4 32 -9 42 -13 22 -36 101 -51 172 -7 30 -21 84 -31 120 -10 36 -26 100
-35 144 -8 43 -23 100 -33 125 -10 25 -24 78 -31 116 -7 39 -19 97 -27 130
-60 251 -77 329 -103 465 -39 198 -60 300 -121 595 -87 418 -89 450 -53 612
20 93 41 136 60 129 8 -3 20 -6 25 -6z m2629 -16 c0 -17 -22 -14 -28 4 -2 7 3
12 12 12 9 0 16 -7 16 -16z m-1271 -83 c17 -11 6 -31 -18 -31 -23 0 -31 9 -24
26 6 16 22 18 42 5z m118 -27 c-3 -3 -12 -4 -19 -1 -8 3 -5 6 6 6 11 1 17 -2
13 -5z m1608 -4 c3 -5 -1 -10 -9 -10 -9 0 -16 5 -16 10 0 6 4 10 9 10 6 0 13
-4 16 -10z m-1607 -16 c29 -8 28 -20 -1 -26 -23 -4 -51 14 -40 26 8 7 12 7 41
0z m-108 -36 c0 -19 -2 -20 -10 -8 -13 19 -13 30 0 30 6 0 10 -10 10 -22z
m-941 -56 c11 -9 12 -15 5 -20 -6 -4 -14 -17 -18 -29 -6 -19 -15 -23 -47 -23
-21 0 -39 5 -39 10 0 6 18 10 40 10 22 0 40 5 40 10 0 6 -18 10 -40 10 -22 0
-40 5 -40 11 0 7 17 10 45 7 25 -2 45 0 45 4 0 5 -4 8 -10 8 -5 0 -10 10 -9
23 0 14 2 17 6 7 3 -8 13 -21 22 -28z m16 -72 c3 -5 -1 -10 -9 -10 -9 0 -16 5
-16 10 0 6 4 10 9 10 6 0 13 -4 16 -10z m-9 -62 c4 -13 2 -24 -5 -26 -6 -2
-11 -25 -12 -50 l-1 -47 -9 44 c-5 25 -14 48 -21 52 -9 6 -8 13 6 28 24 27 33
26 42 -1z m-56 -87 c5 -11 10 -38 10 -60 0 -39 -2 -41 -30 -41 -28 0 -30 -2
-30 -40 0 -40 0 -40 38 -40 37 0 39 -2 65 -60 16 -35 33 -60 42 -60 8 0 15 -9
15 -20 0 -16 7 -20 38 -20 l37 0 2 -70 c2 -68 1 -70 -23 -70 -16 0 -24 -6 -24
-18 0 -10 -7 -27 -15 -38 -13 -18 -14 -16 -15 23 0 23 5 45 10 48 6 3 10 15
10 26 0 10 -4 19 -10 19 -5 0 -10 -9 -10 -20 0 -17 -7 -20 -40 -20 -36 0 -40
2 -40 26 0 20 -4 25 -16 20 -9 -3 -18 -6 -20 -6 -10 0 -2 -27 16 -50 11 -14
20 -32 20 -41 0 -9 7 -19 15 -23 15 -5 21 -46 7 -46 -4 0 -13 -18 -19 -40 -10
-39 -10 -40 16 -40 17 0 22 -3 13 -8 -7 -5 -10 -16 -6 -25 4 -10 1 -17 -6 -17
-7 0 -10 -7 -6 -15 6 -15 -3 -19 -41 -15 -13 1 -23 -3 -23 -9 0 -6 -5 -11 -11
-11 -17 0 -35 23 -48 62 -7 20 -19 42 -27 48 -7 7 -14 23 -14 36 0 12 -4 26
-10 29 -5 3 -10 25 -10 48 0 27 -3 37 -9 29 -12 -19 -21 35 -15 84 4 35 3 36
-6 14 l-11 -25 -16 35 c-9 19 -17 61 -18 94 -3 58 -3 58 12 27 16 -33 33 -33
33 0 0 17 7 19 61 19 33 0 59 3 57 8 -23 47 -32 62 -38 62 -4 0 -13 -12 -21
-27 l-13 -28 -4 33 c-3 30 -6 32 -40 32 l-37 0 43 40 c33 31 51 40 77 40 l35
0 0 60 c0 53 2 60 20 60 10 0 24 -9 30 -19z m-233 -148 c-3 -10 -5 -4 -5 12 0
17 2 24 5 18 2 -7 2 -21 0 -30z m20 -15 c-3 -8 -6 -5 -6 6 -1 11 2 17 5 13 3
-3 4 -12 1 -19z m0 -50 c-3 -8 -6 -5 -6 6 -1 11 2 17 5 13 3 -3 4 -12 1 -19z
m-17 -32 c0 -8 -4 -17 -8 -20 -4 -2 -8 4 -8 15 0 10 4 19 8 19 4 0 8 -6 8 -14z
m378 -65 c3 -8 -1 -12 -9 -9 -7 2 -15 10 -17 17 -3 8 1 12 9 9 7 -2 15 -10 17
-17z m-153 -471 c3 -5 1 -10 -4 -10 -6 0 -11 5 -11 10 0 6 2 10 4 10 3 0 8 -4
11 -10z m1784 -236 c26 -121 67 -309 91 -419 23 -110 53 -229 67 -265 17 -46
22 -75 18 -100 -6 -31 -8 -33 -19 -17 -9 11 -35 20 -75 25 l-63 9 6 -31 c16
-79 17 -166 5 -236 -7 -41 -12 -94 -11 -117 1 -33 -2 -41 -13 -36 -8 3 -18 -2
-21 -11 -10 -27 -23 -18 -34 24 -12 45 -4 90 16 90 14 0 15 6 19 125 1 22 3
58 4 80 2 22 -2 94 -8 160 -6 66 -11 124 -11 129 0 5 7 3 15 -4 13 -11 15 -5
15 46 -1 33 -7 100 -15 149 -8 50 -24 153 -35 230 -22 153 -36 231 -52 286 -8
30 -7 42 12 79 14 28 25 39 32 32 5 -5 31 -108 57 -228z m-320 -456 c-1 -29 4
-80 10 -113 6 -33 20 -157 31 -275 11 -118 25 -240 30 -270 5 -30 12 -85 15
-123 8 -79 28 -82 25 -3 -5 107 -1 135 22 156 30 27 33 26 46 -18 13 -43 68
-108 76 -89 2 7 5 5 5 -5 1 -9 6 -18 13 -20 7 -3 9 -12 5 -22 -6 -15 -10 -16
-22 -6 -13 11 -14 10 -9 -4 5 -12 2 -15 -10 -10 -14 5 -16 2 -10 -21 6 -24 4
-27 -10 -22 -11 5 -16 1 -16 -14 0 -11 -4 -17 -10 -14 -5 3 -10 -1 -10 -10 0
-9 -4 -13 -10 -10 -5 3 -10 -1 -10 -9 0 -8 -6 -19 -12 -23 -46 -29 -50 -45
-53 -225 -2 -95 -9 -202 -15 -238 -26 -164 -42 -290 -60 -481 -11 -113 -22
-212 -24 -220 -3 -8 -12 -108 -21 -224 -8 -115 -20 -246 -25 -290 -5 -44 -12
-152 -15 -240 -4 -88 -11 -196 -15 -240 -18 -155 -46 -461 -61 -655 -13 -183
-14 -189 -27 -221 -6 -15 -8 -29 -5 -32 3 -3 2 -11 -2 -17 -6 -9 -10 -9 -16 1
-7 11 -9 11 -9 -1 -1 -38 -17 -42 -51 -11 -26 25 -33 39 -34 71 -1 22 3 40 7
40 4 0 8 11 8 25 0 14 -5 25 -11 25 -5 0 -7 5 -3 12 4 6 7 35 6 62 -2 28 2 98
8 156 6 58 11 128 10 155 -1 60 26 387 39 463 4 29 9 87 10 130 2 82 28 351
36 373 4 14 22 201 50 544 20 245 34 386 41 415 6 25 6 244 1 720 -2 140 0
291 4 335 5 44 12 143 18 220 9 126 35 297 47 317 10 17 13 6 13 -44z m203
-593 c-13 -28 -32 -25 -32 4 0 24 21 44 34 31 6 -6 5 -19 -2 -35z m-1273 -142
c0 -25 -1 -26 -9 -8 -12 27 -12 35 0 35 6 0 10 -12 9 -27z m49 -16 c9 3 22 12
28 19 6 7 28 16 50 19 34 6 40 4 49 -16 6 -13 21 -26 35 -30 l25 -6 -27 -13
c-29 -14 -35 -25 -19 -35 5 -3 12 3 14 12 3 10 5 5 6 -12 1 -52 -11 -59 -49
-25 -18 16 -39 30 -46 30 -7 0 -29 9 -48 21 l-36 21 -1 -24 0 -23 -9 23 c-5
12 -6 37 -2 55 7 31 7 31 10 5 2 -20 7 -25 20 -21z m19 37 c-3 -3 -12 -4 -19
-1 -8 3 -5 6 6 6 11 1 17 -2 13 -5z m-407 -124 c0 -11 -4 -20 -10 -20 -5 0
-10 9 -10 20 0 11 5 20 10 20 6 0 10 -9 10 -20z m334 -315 c16 -24 16 -25 -4
-25 -11 0 -20 4 -20 9 0 5 -3 16 -6 25 -10 25 12 19 30 -9z m333 -1057 c-3 -7
-5 -2 -5 12 0 14 2 19 5 13 2 -7 2 -19 0 -25z m-4 -44 c-12 -33 -36 -55 -44
-42 -5 7 -11 9 -15 5 -4 -3 -2 -12 3 -19 20 -25 18 -305 -3 -366 -15 -45 -19
-112 -6 -112 4 0 7 -36 7 -80 1 -44 -2 -80 -5 -80 -24 1 -69 161 -63 227 1 20
-4 63 -12 94 -8 32 -18 98 -22 149 -6 87 -5 91 15 97 11 3 22 15 24 26 2 12
14 27 28 34 14 7 18 13 10 13 -10 0 -6 8 12 23 15 13 32 36 38 51 9 24 12 26
25 12 9 -8 12 -22 8 -32z m2364 -130 c8 -22 -7 -45 -44 -67 -83 -48 -508 -107
-773 -107 -105 0 -130 5 -130 25 0 8 27 14 83 19 45 3 107 13 137 21 30 8 83
15 117 15 35 0 82 4 105 10 24 5 102 21 173 36 72 15 159 35 195 45 85 23 129
24 137 3z m-4312 -184 c3 -5 1 -10 -4 -10 -6 0 -11 5 -11 10 0 6 2 10 4 10 3
0 8 -4 11 -10z m-32 -340 c-8 -31 -23 -34 -23 -6 0 16 6 26 14 26 9 0 12 -7 9
-20z m3201 -6 c3 -9 6 -23 6 -32 -1 -15 -3 -14 -15 2 -17 22 -20 46 -6 46 5 0
12 -7 15 -16z m1296 -34 c0 -5 -7 -7 -15 -4 -8 4 -15 8 -15 10 0 2 7 4 15 4 8
0 15 -4 15 -10z m-4514 -48 c-12 -11 -18 7 -10 30 l8 23 4 -23 c2 -13 1 -26
-2 -30z m224 -332 c0 -17 -3 -19 -19 -8 -21 13 -19 28 5 28 8 0 14 -9 14 -20z
m-270 -16 c0 -39 -23 -54 -102 -63 -252 -31 -638 -17 -638 23 0 10 23 13 84
14 47 0 89 3 94 6 5 3 64 6 133 7 130 1 296 14 364 28 63 13 65 13 65 -15z
m480 -3 c56 -11 312 -65 405 -86 40 -8 75 -22 83 -32 9 -13 15 -14 24 -5 15
15 94 16 103 2 3 -6 3 -20 0 -31 -6 -18 -13 -20 -53 -16 -90 10 -118 15 -237
45 -66 17 -175 42 -243 57 -139 29 -231 57 -212 63 9 3 9 7 -1 14 -15 10 54 5
131 -11z m4293 -506 c22 -21 39 -49 43 -70 11 -62 0 -167 -26 -227 -22 -53
-26 -58 -54 -58 -26 0 -34 6 -50 40 -11 22 -19 46 -19 53 0 33 25 264 29 280
8 27 38 20 77 -18z m-2251 -549 c3 -14 1 -31 -3 -38 -5 -7 -9 -26 -9 -41 0
-18 -5 -27 -12 -25 -7 3 -14 30 -16 66 -3 56 -2 62 16 62 13 0 21 -8 24 -24z
m38 10 c0 -2 -7 -9 -15 -16 -12 -10 -15 -10 -15 4 0 9 7 16 15 16 8 0 15 -2
15 -4z m-24 -440 c14 -11 16 -18 8 -26 -18 -18 -49 -7 -52 18 -4 26 15 29 44
8z m5941 -188 c-3 -8 -6 -5 -6 6 -1 11 2 17 5 13 3 -3 4 -12 1 -19z m-5931
-102 c10 -27 -15 -57 -44 -54 -30 3 -43 35 -20 49 19 13 26 11 31 -8 4 -14 5
-12 6 5 1 25 19 30 27 8z m3681 -25 c23 4 72 -23 95 -50 10 -12 24 -21 31 -21
7 0 21 -16 30 -36 l17 -36 64 7 c80 9 182 -11 165 -32 -9 -10 -7 -13 8 -13 11
0 36 -15 56 -32 20 -18 48 -41 62 -51 15 -11 24 -21 21 -25 -5 -5 -40 8 -121
43 -16 7 -38 16 -47 19 -12 3 -15 11 -11 22 6 15 1 16 -41 11 -51 -7 -47 -8
-326 101 -63 24 -128 50 -145 57 -16 7 -37 15 -45 18 -8 2 6 7 32 11 27 4 52
4 58 1 5 -3 10 -2 10 4 0 13 42 19 57 8 6 -5 20 -7 30 -6z m-3867 -96 c0 -3
-9 -5 -20 -5 -11 0 -20 7 -20 15 0 13 4 14 20 5 11 -6 20 -13 20 -15z m6520
-160 c0 -16 6 -25 16 -25 13 0 14 -3 5 -14 -15 -18 6 -66 29 -66 16 0 22 -8
68 -103 13 -26 28 -47 35 -48 7 0 3 -4 -8 -8 -18 -7 -18 -9 8 -26 19 -12 26
-23 22 -36 -5 -15 -1 -19 17 -19 22 -1 22 -1 4 -15 -11 -8 -16 -21 -13 -30 7
-17 27 -21 27 -5 0 6 7 10 15 10 18 0 19 -12 3 -28 -8 -8 -8 -12 -1 -12 6 0
13 -6 16 -13 5 -14 -70 -11 -90 5 -6 5 -23 6 -39 2 -18 -5 -25 -3 -20 4 3 6
-5 19 -19 30 -13 11 -34 40 -44 66 -11 25 -24 46 -29 46 -5 0 -12 12 -16 28
-3 15 -8 37 -12 50 -5 18 -2 22 15 22 11 0 21 4 21 9 0 5 -8 7 -19 4 -10 -3
-22 0 -26 7 -4 7 1 14 14 17 27 7 27 17 -1 31 l-23 11 23 0 c19 1 22 6 22 41
0 33 -3 40 -20 40 -23 0 -24 3 -8 30 17 27 28 25 28 -5z m-1680 -165 c57 5 85
-4 231 -79 154 -78 242 -113 130 -51 -94 52 -146 100 -109 100 18 0 172 -77
353 -176 188 -102 207 -114 183 -114 -22 0 -183 59 -271 99 -38 17 -79 31 -91
31 -29 0 -89 22 -304 109 -190 78 -228 96 -172 86 19 -4 42 -6 50 -5z m564
-94 c15 -4 26 -9 24 -11 -9 -9 -62 12 -66 26 -2 9 -1 10 5 3 4 -6 21 -14 37
-18z m-5648 -51 c7 -18 -8 -67 -22 -72 -6 -2 -16 7 -23 21 -10 18 -10 29 -2
45 13 24 39 28 47 6z m164 -28 c0 -25 -17 -47 -37 -47 -14 0 -17 27 -7 54 10
26 44 20 44 -7z m5620 13 c0 -5 -7 -10 -16 -10 -8 0 -12 5 -9 10 3 6 10 10 16
10 5 0 9 -4 9 -10z m30 -25 c0 -8 -4 -15 -9 -15 -13 0 -22 16 -14 24 11 11 23
6 23 -9z m-5977 -37 c10 -37 -18 -53 -42 -24 -9 11 -8 18 4 30 22 22 32 20 38
-6z m6022 12 c3 -5 -1 -10 -9 -10 -9 0 -16 5 -16 10 0 6 4 10 9 10 6 0 13 -4
16 -10z m67 -38 c9 -7 23 -11 30 -7 9 6 10 5 3 -3 -14 -16 -48 -5 -64 20 -14
22 -2 19 31 -10z m-5632 -15 c0 -13 -9 -32 -20 -42 -14 -13 -20 -31 -20 -59 0
-53 -27 -78 -92 -84 -68 -7 -64 8 36 118 12 14 33 40 45 58 26 38 51 42 51 9z
m-140 -52 c0 -30 -26 -45 -78 -45 -35 0 -39 -2 -35 -20 3 -13 0 -20 -8 -20 -8
0 -25 -9 -38 -19 -33 -26 -46 -18 -78 45 -28 55 -27 79 2 50 17 -17 45 -22 45
-7 0 4 17 7 38 7 20 -1 43 2 50 7 12 9 63 24 90 26 6 1 12 -10 12 -24z m6775
15 c3 -5 -1 -10 -9 -10 -9 0 -16 5 -16 10 0 6 4 10 9 10 6 0 13 -4 16 -10z
m-725 -19 c0 -18 -158 -62 -196 -55 -44 8 -54 24 -16 24 16 0 35 7 42 15 7 9
36 15 78 18 37 2 73 4 80 5 6 1 12 -2 12 -7z m779 -10 c9 -6 10 -10 2 -16 -15
-8 -41 1 -41 15 0 12 20 13 39 1z m-7244 -27 c35 -23 31 -34 -10 -34 -31 0
-35 3 -35 25 0 29 11 31 45 9z m7285 -14 c0 -16 -4 -30 -10 -30 -5 0 -10 14
-10 30 0 17 5 30 10 30 6 0 10 -13 10 -30z m-6663 -36 c15 -40 -47 -75 -93
-52 -29 14 -33 34 -6 31 9 -1 19 2 22 6 8 12 43 30 58 31 7 0 15 -7 19 -16z
m616 -36 c-18 -20 -63 -24 -81 -6 -18 18 -15 28 8 28 11 0 20 7 20 15 0 13 5
12 35 -2 33 -16 34 -18 18 -35z m-133 32 c0 -5 -5 -10 -11 -10 -5 0 -7 5 -4
10 3 6 8 10 11 10 2 0 4 -4 4 -10z m-750 -45 c0 -9 -7 -18 -15 -21 -8 -4 -15
-16 -15 -29 0 -31 -23 -47 -54 -39 -15 3 -32 2 -39 -4 -6 -5 -36 -16 -64 -25
-44 -12 -54 -12 -64 -1 -13 16 -8 60 8 57 16 -4 107 39 127 60 23 23 116 24
116 2z m778 -17 c18 -18 15 -28 -8 -28 -13 0 -20 7 -20 20 0 23 10 26 28 8z
m-108 -28 c0 -5 18 -10 40 -10 22 0 40 -5 40 -11 0 -13 -99 -9 -118 5 -11 8
-11 11 0 17 18 12 38 11 38 -1z m-951 -45 c0 -29 -3 -35 -8 -21 -5 14 -10 16
-15 7 -6 -9 -11 -9 -22 0 -11 9 -24 9 -53 0 -56 -16 -61 -15 -61 24 l0 36 80
-3 80 -3 -1 -40z m525 -13 c4 -7 -17 -58 -29 -70 -2 -2 -13 1 -24 8 -26 13
-28 57 -3 63 29 8 51 7 56 -1z m-534 -96 c0 -7 -7 -19 -16 -27 -8 -7 -13 -21
-10 -32 2 -10 2 -16 -1 -13 -3 3 -14 1 -24 -5 -13 -6 -25 -6 -38 0 -24 13 -17
56 12 76 27 19 77 20 77 1z m411 -36 c25 -14 24 -52 -2 -76 -20 -18 -21 -18
-35 1 -8 10 -14 31 -14 45 0 41 14 49 51 30z m-301 -58 c0 -38 -26 -72 -56
-72 -37 0 -32 42 9 74 41 33 47 32 47 -2z m164 -8 c10 -26 7 -61 -7 -73 -22
-18 -58 -17 -70 1 -17 26 15 88 47 88 13 0 27 -7 30 -16z m4299 -34 l27 -39
66 5 c55 3 68 8 89 31 13 16 25 22 25 16 0 -7 9 -13 20 -13 13 0 20 -7 20 -20
0 -14 6 -20 23 -19 12 0 16 3 10 6 -20 8 -15 23 8 23 13 0 18 -4 13 -12 -5 -8
0 -9 14 -6 12 4 22 2 22 -3 0 -5 11 -11 24 -15 14 -3 27 -12 30 -20 3 -8 16
-14 30 -14 46 0 174 -79 161 -100 -2 -3 -54 -1 -115 5 -99 9 -115 13 -143 37
-80 68 -83 69 -154 67 -65 -2 -143 12 -190 34 -17 8 -23 19 -23 44 0 18 3 33
8 33 4 0 19 -18 35 -40z m-2124 5 c29 9 134 -12 143 -30 5 -8 15 -12 23 -9 9
4 15 0 15 -10 0 -8 6 -13 13 -11 23 9 92 -22 95 -43 3 -22 -26 -38 -42 -22 -5
5 -20 10 -33 10 -13 0 -23 6 -23 13 0 8 -4 7 -10 -3 -9 -13 -11 -13 -20 0 -8
13 -11 13 -22 -1 -20 -24 -108 -14 -108 12 0 15 -7 19 -40 19 -29 0 -40 4 -40
15 0 8 -6 24 -12 35 -11 17 -10 22 2 30 9 5 19 5 27 -1 6 -6 21 -8 32 -4z
m1092 -46 c21 -11 157 -39 190 -39 14 0 30 -5 37 -12 7 -7 45 -14 85 -15 81
-4 259 -44 256 -59 -2 -5 10 -11 27 -14 22 -4 28 -10 26 -25 -4 -26 -33 -49
-42 -35 -4 6 -47 12 -96 14 -91 4 -143 11 -179 25 -11 5 -33 14 -50 21 -19 8
-31 8 -33 1 -2 -7 -12 -7 -29 0 -15 5 -38 11 -52 13 -14 2 -55 13 -90 24 -36
12 -68 19 -71 17 -4 -2 -18 6 -31 18 -14 13 -37 22 -57 23 -42 1 -57 15 -44
41 9 17 19 19 74 15 35 -2 70 -8 79 -13z m-1436 1 c-3 -5 -10 -10 -16 -10 -5
0 -9 5 -9 10 0 6 7 10 16 10 8 0 12 -4 9 -10z m91 -5 c3 -8 14 -17 25 -20 12
-4 19 -16 19 -31 0 -20 -5 -24 -29 -24 -58 0 -91 12 -91 32 0 11 9 22 20 25
11 3 20 12 20 19 0 19 29 18 36 -1z m2014 -216 c0 -20 -15 -26 -25 -9 -9 15 3
43 15 35 5 -3 10 -15 10 -26z m180 -109 c0 -5 -4 -10 -10 -10 -5 0 -10 5 -10
10 0 6 5 10 10 10 6 0 10 -4 10 -10z"/>
<path d="M6812 9879 c2 -6 8 -10 13 -10 5 0 11 4 13 10 2 6 -4 11 -13 11 -9 0
-15 -5 -13 -11z"/>
<path d="M6701 9871 c-10 -6 -10 -10 -1 -16 13 -8 24 -1 19 14 -3 6 -10 7 -18
2z"/>
<path d="M6800 9490 c0 -5 4 -10 9 -10 6 0 13 5 16 10 3 6 -1 10 -9 10 -9 0
-16 -4 -16 -10z"/>
<path d="M6777 9413 c-4 -3 -7 -15 -7 -25 0 -10 -4 -18 -9 -18 -5 0 -11 -11
-13 -24 -4 -17 -1 -23 9 -19 7 3 13 11 13 17 0 22 25 65 40 70 9 2 7 4 -6 5
-11 0 -24 -2 -27 -6z"/>
<path d="M6730 9401 c0 -6 5 -13 10 -16 6 -3 10 1 10 9 0 9 -4 16 -10 16 -5 0
-10 -4 -10 -9z"/>
<path d="M6776 9309 c-19 -19 -19 -19 1 -38 25 -24 55 -12 34 13 -7 9 -11 23
-7 31 7 20 -5 18 -28 -6z"/>
<path d="M6956 9250 c8 -31 10 -34 23 -25 16 9 13 25 -3 25 -8 0 -17 6 -20 13
-3 6 -3 1 0 -13z"/>
<path d="M6733 9245 c-19 -20 -16 -35 6 -35 26 0 37 19 20 35 -12 11 -16 11
-26 0z"/>
<path d="M6780 9175 c-10 -12 -10 -15 4 -15 9 0 16 7 16 15 0 8 -2 15 -4 15
-2 0 -9 -7 -16 -15z"/>
<path d="M6698 9173 c-24 -6 -23 -23 1 -23 28 0 47 -26 31 -45 -10 -13 -9 -15
9 -15 11 0 21 3 21 8 0 4 3 17 6 30 5 17 2 22 -14 22 -24 0 -38 16 -20 23 16
7 -10 7 -34 0z"/>
<path d="M7952 8917 c-14 -16 -6 -27 20 -27 13 0 18 6 16 17 -4 22 -22 27 -36
10z"/>
<path d="M5480 9580 c0 -5 5 -10 11 -10 5 0 7 5 4 10 -3 6 -8 10 -11 10 -2 0
-4 -4 -4 -10z"/>
<path d="M6066 5661 c-3 -5 1 -11 9 -15 8 -3 15 -1 15 4 0 13 -18 22 -24 11z"/>
<path d="M6402 5265 c-12 -14 -31 -25 -41 -25 -17 0 -18 -4 -11 -31 5 -18 16
-39 23 -48 8 -9 17 -23 20 -31 4 -11 6 -10 6 4 1 10 12 49 26 87 27 75 18 91
-23 44z"/>
<path d="M5513 7910 c0 -25 2 -35 4 -22 2 12 2 32 0 45 -2 12 -4 2 -4 -23z"/>
<path d="M5475 7880 c3 -5 8 -10 11 -10 2 0 4 5 4 10 0 6 -5 10 -11 10 -5 0
-7 -4 -4 -10z"/>
<path d="M5570 7877 c14 -6 28 -15 31 -20 3 -5 24 -5 45 -1 l39 7 -35 13 c-19
7 -51 13 -70 13 -34 0 -34 -1 -10 -12z"/>
<path d="M5580 7591 c0 -12 5 -21 10 -21 6 0 10 6 10 14 0 8 -4 18 -10 21 -5
3 -10 -3 -10 -14z"/>
<path d="M6861 2874 c0 -11 3 -14 6 -6 3 7 2 16 -1 19 -3 4 -6 -2 -5 -13z"/>
<path d="M6275 4410 c-3 -5 -1 -10 4 -10 6 0 11 5 11 10 0 6 -2 10 -4 10 -3 0
-8 -4 -11 -10z"/>
<path d="M13280 1136 c0 -8 7 -16 15 -20 17 -6 18 -4 9 18 -8 20 -24 21 -24 2z"/>
<path d="M8804 10134 c-32 -41 -65 -81 -71 -89 -7 -7 -13 -18 -13 -24 0 -6 -3
-11 -7 -11 -5 0 -13 -11 -20 -25 -10 -22 -9 -25 8 -25 11 0 22 7 25 15 4 8 15
15 25 15 10 0 16 5 14 13 -3 7 11 19 33 28 30 13 40 24 50 56 7 22 19 46 27
53 19 15 19 44 2 59 -11 8 -26 -6 -73 -65z"/>
<path d="M8653 9913 c-14 -16 -29 -38 -34 -51 -12 -31 -11 -65 1 -57 5 3 9
-12 8 -37 0 -54 21 -108 43 -108 19 0 59 57 59 83 0 8 -8 29 -17 45 -17 29
-17 31 1 51 11 12 31 21 48 21 49 0 25 38 -29 45 -15 2 -30 4 -32 4 -3 1 4 8
15 16 18 14 18 14 -9 15 -18 0 -37 -10 -54 -27z"/>
<path d="M8610 9658 c0 -12 7 -18 23 -17 15 0 17 2 7 6 -8 3 -18 11 -22 17 -5
7 -8 4 -8 -6z"/>
<path d="M8634 9569 c8 -41 27 -62 49 -53 23 9 21 27 -6 50 -45 40 -51 40 -43
3z"/>
<path d="M8660 8551 c0 -5 5 -13 10 -16 6 -3 10 -2 10 4 0 5 -4 13 -10 16 -5
3 -10 2 -10 -4z"/>
<path d="M8400 8429 c0 -5 5 -7 10 -4 6 3 10 8 10 11 0 2 -4 4 -10 4 -5 0 -10
-5 -10 -11z"/>
<path d="M12968 2763 c7 -3 16 -2 19 1 4 3 -2 6 -13 5 -11 0 -14 -3 -6 -6z"/>
<path d="M13635 2331 c-3 -5 -1 -12 5 -16 5 -3 10 1 10 9 0 18 -6 21 -15 7z"/>
<path d="M12618 2240 c-7 -24 -3 -38 8 -28 3 4 4 17 2 30 l-3 23 -7 -25z"/>
<path d="M9276 1551 c-10 -16 5 -39 29 -45 49 -12 117 17 100 44 -8 12 -122
14 -129 1z"/>
<path d="M9483 1512 c-41 -6 -27 -32 16 -32 48 0 76 26 34 31 -16 2 -38 3 -50
1z"/>
<path d="M9632 1463 c-34 -7 -21 -28 19 -31 31 -2 70 11 59 21 -9 8 -55 14
-78 10z"/>
<path d="M9777 1409 c-24 -14 -12 -29 24 -29 36 0 72 17 64 31 -8 12 -65 11
-88 -2z"/>
<path d="M13118 1413 c7 -3 16 -2 19 1 4 3 -2 6 -13 5 -11 0 -14 -3 -6 -6z"/>
<path d="M9937 1363 c-26 -7 -15 -27 16 -31 28 -3 70 14 63 26 -5 9 -53 12
-79 5z"/>
<path d="M10081 1311 c-7 -5 -10 -14 -7 -20 14 -21 96 -8 96 15 0 16 -66 19
-89 5z"/>
<path d="M10240 1260 c-13 -9 -13 -11 0 -20 28 -18 90 -7 90 16 0 17 -67 19
-90 4z"/>
<path d="M8820 1225 c-6 -16 -10 -38 -8 -49 3 -19 9 -21 58 -18 62 3 87 17 69
38 -6 8 -23 14 -37 14 -14 0 -36 10 -49 21 l-22 22 -11 -28z"/>
<path d="M10401 1211 c-19 -12 -4 -31 25 -31 29 0 64 16 64 30 0 12 -70 13
-89 1z"/>
<path d="M10567 1169 c-16 -4 -35 -13 -44 -20 -13 -12 -13 -14 3 -26 40 -30
143 -6 131 30 -5 16 -57 25 -90 16z"/>
<path d="M11223 963 c-13 -2 -23 -11 -23 -19 0 -12 11 -14 48 -12 34 2 47 7
47 18 0 16 -32 21 -72 13z"/>
<path d="M11380 900 c-12 -7 -12 -12 -3 -21 15 -15 84 -1 91 19 5 15 -65 17
-88 2z"/>
<path d="M11551 849 c-35 -14 -13 -31 35 -27 27 2 39 8 39 18 0 18 -40 23 -74
9z"/>
<path d="M11711 791 c-19 -12 -4 -31 25 -31 29 0 64 16 64 30 0 12 -70 13 -89
1z"/>
<path d="M11892 743 c-34 -7 -21 -28 20 -31 22 -2 39 3 48 12 7 9 9 16 4 17
-5 0 -18 2 -29 3 -11 2 -30 1 -43 -1z"/>
<path d="M9573 720 c-39 -16 -26 -29 25 -27 41 2 48 5 44 20 -5 18 -33 21 -69
7z"/>
<path d="M9660 680 c0 -5 5 -10 10 -10 6 0 10 5 10 10 0 6 -4 10 -10 10 -5 0
-10 -4 -10 -10z"/>
<path d="M12020 675 c-48 -26 43 -58 100 -35 33 14 37 22 17 38 -16 14 -90 12
-117 -3z"/>
<path d="M12221 621 c-12 -8 -9 -11 12 -16 31 -8 77 1 77 15 0 13 -70 13 -89
1z"/>
<path d="M12395 571 c-19 -8 -18 -10 9 -20 30 -12 81 -3 81 15 0 12 -65 15
-90 5z"/>
<path d="M12572 513 c-20 -8 -3 -23 28 -23 34 0 60 9 60 21 0 9 -66 11 -88 2z"/>
<path d="M12751 456 c-17 -20 2 -29 45 -22 46 9 46 36 0 36 -18 0 -39 -6 -45
-14z"/>
<path d="M12942 411 c-28 -7 -30 -23 -5 -32 25 -8 68 5 68 21 0 15 -27 19 -63
11z"/>
<path d="M13127 348 c-47 -13 -43 -32 7 -36 44 -4 72 13 55 34 -13 16 -10 16
-62 2z"/>
<path d="M10760 10 c0 -5 5 -10 10 -10 6 0 10 5 10 10 0 6 -4 10 -10 10 -5 0
-10 -4 -10 -10z"/>
</g>
</svg>
